<svg width="250" height="162" viewBox="0 0 1000 750" xmlns="http://www.w3.org/2000/svg" version="1.1" xmlns:xlink="http://www.w3.org/1999/xlink" xmlns:svgjs="http://svgjs.dev/svgjs">
	<rect width="1000" height="750" fill="#1ebbd7"></rect><g transform="matrix(0.834,0,0,0.834,82.50894564939603,7.503808906882568)"><svg viewBox="0 0 280 247" data-background-color="#1ebbd7" preserveAspectRatio="xMidYMid meet" height="882" width="1000" xmlns="http://www.w3.org/2000/svg" xmlns:xlink="http://www.w3.org/1999/xlink"><g id="tight-bounds" transform="matrix(1,0,0,1,0.1648623719054001,-0.09999999999999432)"><svg viewBox="0 0 279.6702672551647 247.2" height="247.2" width="279.6702672551647"><g><svg viewBox="0 0 395.52 349.59935126315946" height="247.2" width="279.6702672551647"><g transform="matrix(1,0,0,1,0,240.29310078733153)"><svg viewBox="0 0 395.52 109.30625047582794" height="109.30625047582794" width="395.52"><g id="textblocktransform"><svg viewBox="0 0 395.52 109.30625047582794" height="109.30625047582794" width="395.52" id="textblock"><g><svg viewBox="0 0 395.52 109.30625047582794" height="109.30625047582794" width="395.52"><g transform="matrix(1,0,0,1,0,0)"><svg width="395.52" viewBox="3.8499999046325684 -35.650001525878906 131.33999633789062 36.30000305175781" height="109.30625047582794" data-palette-color="#ffffff">
	<path d="M19.15 0L15.55 0 15.55-10.35Q11.75-10.75 9.13-12.68 6.5-14.6 5.18-17.65 3.85-20.7 3.85-24.35L3.85-24.35 3.85-34.95 7.45-34.95 7.45-24Q7.45-21.2 8.6-18.8 9.75-16.4 12-14.93 14.25-13.45 17.4-13.45L17.4-13.45Q20.6-13.45 22.8-14.93 25-16.4 26.18-18.8 27.35-21.2 27.35-24L27.35-24 27.35-34.95 30.95-34.95 30.95-24.35Q30.95-20.7 29.6-17.65 28.25-14.6 25.63-12.65 23-10.7 19.15-10.35L19.15-10.35 19.15 0ZM52.2 0.65L52.2 0.65Q48.25 0.65 45.2-1.07 42.15-2.8 40.4-5.95 38.65-9.1 38.65-13.45L38.65-13.45 38.65-35 42.25-35 42.25-12.95Q42.25-10.1 43.47-7.78 44.7-5.45 46.92-4.03 49.15-2.6 52.2-2.6L52.2-2.6Q55.3-2.6 57.52-4.03 59.75-5.45 60.95-7.78 62.15-10.1 62.15-12.95L62.15-12.95 62.15-35 65.75-35 65.75-13.45Q65.75-9.1 64-5.95 62.25-2.8 59.2-1.07 56.15 0.65 52.2 0.65ZM92.95 0L90.7 0Q88.05 0 86.1-1.13 84.15-2.25 83.1-4.25 82.05-6.25 82.05-8.8L82.05-8.8 82.05-31.8 70.95-31.8 70.95-35 96.75-35 96.75-31.8 85.65-31.8 85.65-8.3Q85.65-6.1 87.02-4.65 88.4-3.2 90.75-3.2L90.75-3.2 92.95-3.2 92.95 0ZM117.09 0.65L117.09 0.65Q112.99 0.65 109.64-0.75 106.29-2.15 103.92-4.65 101.54-7.15 100.27-10.45 98.99-13.75 98.99-17.5L98.99-17.5Q98.99-21.3 100.27-24.58 101.54-27.85 103.92-30.35 106.29-32.85 109.64-34.25 112.99-35.65 117.09-35.65L117.09-35.65Q121.24-35.65 124.57-34.25 127.89-32.85 130.27-30.35 132.64-27.85 133.92-24.58 135.19-21.3 135.19-17.55L135.19-17.55Q135.19-13.75 133.92-10.45 132.64-7.15 130.27-4.65 127.89-2.15 124.57-0.75 121.24 0.65 117.09 0.65ZM117.09-2.6L117.09-2.6Q120.19-2.6 122.87-3.7 125.54-4.8 127.49-6.83 129.44-8.85 130.52-11.58 131.59-14.3 131.59-17.5L131.59-17.5Q131.59-20.75 130.52-23.45 129.44-26.15 127.49-28.18 125.54-30.2 122.87-31.33 120.19-32.45 117.09-32.45L117.09-32.45Q113.99-32.45 111.34-31.33 108.69-30.2 106.72-28.18 104.74-26.15 103.67-23.45 102.59-20.75 102.59-17.55L102.59-17.55Q102.59-14.3 103.67-11.58 104.74-8.85 106.72-6.83 108.69-4.8 111.34-3.7 113.99-2.6 117.09-2.6Z" opacity="1" transform="matrix(1,0,0,1,0,0)" fill="#ffffff" class="wordmark-text-0" data-fill-palette-color="primary" id="text-0"></path>
</svg></g>
</svg></g>
</svg></g>
</svg></g><g transform="matrix(1,0,0,1,90.5157408,0)"><svg viewBox="0 0 214.48851839999998 214.48851839999998" height="214.48851839999998" width="214.48851839999998"><g><svg>
</svg></g><g id="icon-0"><svg viewBox="0 0 214.48851839999998 214.48851839999998" height="214.48851839999998" width="214.48851839999998"><g>
	<rect width="195.02567136" height="195.02567136" x="9.731423519999993" y="9.731423519999993" fill="#ffffff" data-fill-palette-color="accent"></rect>
	<rect width="195.02567136" height="195.02567136" x="-5.329070518200751e-15" y="19.462847039999993" fill="#ffffff" opacity="0.5" data-fill-palette-color="accent"></rect></g><g transform="matrix(1,0,0,1,65.66133633329312,27.80406719999999)"><svg viewBox="0 0 83.16584573341375 158.880384" height="158.880384" width="83.16584573341375"><g><svg xmlns="http://www.w3.org/2000/svg" xmlns:xlink="http://www.w3.org/1999/xlink" version="1.1" x="0" y="0" viewBox="19.682355880737305 3.5 35.572967529296875 67.95874786376953" enable-background="new 0 0 75 75" xml:space="preserve" height="158.880384" width="83.16584573341375" class="icon-s-0" data-fill-palette-color="background" id="s-0">
	<path d="M21.2 59.5c-1.1-2.6-4.2-12.2 3.8-24.7C36 18 31.7 3.5 31.7 3.5S46 8.8 41.7 37.5c-1 6.5-0.9 9 2 9.4 5 0.7 3.1-19.7 3.1-19.7s3.9 2 6.8 12.1c1.5 5.3 1.8 9.5 1.6 12.5-1 18.1-16.5 19.6-16.5 19.6S26.9 73 21.2 59.5z" fill="#1ebbd7" data-fill-palette-color="background"></path>
</svg></g>
</svg></g>
</svg></g>
</svg></g><g></g>
</svg></g><defs></defs>
</svg>
	<rect width="279.6702672551647" height="247.2" fill="none" stroke="none" visibility="hidden"></rect></g>
</svg></g>
</svg>